<mxfile host="65bd71144e">
    <diagram id="YEWVvzpB2IWZrSgf25oI" name="PÃ¡gina-1">
        <mxGraphModel dx="1077" dy="646" grid="1" gridSize="10" guides="1" tooltips="1" connect="1" arrows="1" fold="1" page="1" pageScale="1" pageWidth="1169" pageHeight="827" math="0" shadow="0">
            <root>
                <mxCell id="0"/>
                <mxCell id="1" parent="0"/>
                <mxCell id="12" value="1:N" style="text;strokeColor=none;fillColor=none;align=center;verticalAlign=middle;spacingLeft=4;spacingRight=4;overflow=hidden;points=[[0,0.5],[1,0.5]];portConstraint=eastwest;rotatable=0;" parent="1" vertex="1">
                    <mxGeometry x="477" y="70" width="80" height="30" as="geometry"/>
                </mxCell>
                <mxCell id="28" value="" style="group" vertex="1" connectable="0" parent="1">
                    <mxGeometry x="80" y="98" width="900" height="372" as="geometry"/>
                </mxCell>
                <mxCell id="2" value="escribe" style="rhombus;whiteSpace=wrap;html=1;fillColor=#1D1D91;fontColor=#ffffff;strokeColor=#001DBC;" parent="28" vertex="1">
                    <mxGeometry x="390" y="7" width="100" height="50" as="geometry"/>
                </mxCell>
                <mxCell id="3" value="comentarios" style="rounded=1;whiteSpace=wrap;html=1;fillColor=#1ba1e2;fontColor=#ffffff;strokeColor=#006EAF;" parent="28" vertex="1">
                    <mxGeometry x="780" width="120" height="60" as="geometry"/>
                </mxCell>
                <mxCell id="4" value="comentarios" style="rounded=1;whiteSpace=wrap;html=1;fillColor=#1ba1e2;fontColor=#ffffff;strokeColor=#006EAF;" parent="28" vertex="1">
                    <mxGeometry y="2" width="120" height="60" as="geometry"/>
                </mxCell>
                <mxCell id="5" value="Posts" style="rounded=1;whiteSpace=wrap;html=1;fillColor=#1ba1e2;fontColor=#ffffff;strokeColor=#006EAF;" parent="28" vertex="1">
                    <mxGeometry x="390" y="136" width="120" height="60" as="geometry"/>
                </mxCell>
                <mxCell id="6" value="categorias" style="rounded=1;whiteSpace=wrap;html=1;fillColor=#1ba1e2;fontColor=#ffffff;strokeColor=#006EAF;" parent="28" vertex="1">
                    <mxGeometry y="311" width="120" height="60" as="geometry"/>
                </mxCell>
                <mxCell id="7" value="etiquetas" style="rounded=1;whiteSpace=wrap;html=1;fillColor=#1ba1e2;fontColor=#ffffff;strokeColor=#006EAF;" parent="28" vertex="1">
                    <mxGeometry x="770" y="312" width="120" height="60" as="geometry"/>
                </mxCell>
                <mxCell id="8" value="" style="endArrow=none;html=1;entryX=0;entryY=0.5;entryDx=0;entryDy=0;exitX=1;exitY=0.5;exitDx=0;exitDy=0;" parent="28" source="4" target="2" edge="1">
                    <mxGeometry width="50" height="50" relative="1" as="geometry">
                        <mxPoint x="260" y="62" as="sourcePoint"/>
                        <mxPoint x="310" y="12" as="targetPoint"/>
                    </mxGeometry>
                </mxCell>
                <mxCell id="9" value="escribe" style="rhombus;whiteSpace=wrap;html=1;fillColor=#1D1D91;fontColor=#ffffff;strokeColor=#001DBC;" parent="28" vertex="1">
                    <mxGeometry x="3" y="142" width="100" height="50" as="geometry"/>
                </mxCell>
                <mxCell id="10" value="" style="endArrow=none;html=1;entryX=0.433;entryY=1;entryDx=0;entryDy=0;entryPerimeter=0;" parent="28" target="4" edge="1">
                    <mxGeometry width="50" height="50" relative="1" as="geometry">
                        <mxPoint x="52" y="142" as="sourcePoint"/>
                        <mxPoint x="70" y="82" as="targetPoint"/>
                    </mxGeometry>
                </mxCell>
                <mxCell id="11" value="" style="endArrow=none;html=1;exitX=1;exitY=0.5;exitDx=0;exitDy=0;entryX=0;entryY=0.5;entryDx=0;entryDy=0;" parent="28" target="5" edge="1">
                    <mxGeometry width="50" height="50" relative="1" as="geometry">
                        <mxPoint x="103" y="165.5" as="sourcePoint"/>
                        <mxPoint x="380" y="166" as="targetPoint"/>
                    </mxGeometry>
                </mxCell>
                <mxCell id="13" value="1:N" style="text;strokeColor=none;fillColor=none;align=center;verticalAlign=middle;spacingLeft=4;spacingRight=4;overflow=hidden;points=[[0,0.5],[1,0.5]];portConstraint=eastwest;rotatable=0;" parent="28" vertex="1">
                    <mxGeometry x="60" y="132" width="80" height="30" as="geometry"/>
                </mxCell>
                <mxCell id="14" value="" style="endArrow=none;html=1;exitX=1;exitY=0.5;exitDx=0;exitDy=0;" parent="28" edge="1">
                    <mxGeometry width="50" height="50" relative="1" as="geometry">
                        <mxPoint x="490" y="31.5" as="sourcePoint"/>
                        <mxPoint x="780" y="32" as="targetPoint"/>
                    </mxGeometry>
                </mxCell>
                <mxCell id="15" value="tiene" style="rhombus;whiteSpace=wrap;html=1;fillColor=#1D1D91;fontColor=#ffffff;strokeColor=#001DBC;" parent="28" vertex="1">
                    <mxGeometry x="790" y="142" width="100" height="50" as="geometry"/>
                </mxCell>
                <mxCell id="16" value="" style="endArrow=none;html=1;entryX=0;entryY=0.5;entryDx=0;entryDy=0;" parent="28" target="15" edge="1">
                    <mxGeometry width="50" height="50" relative="1" as="geometry">
                        <mxPoint x="510" y="165.5" as="sourcePoint"/>
                        <mxPoint x="790" y="161" as="targetPoint"/>
                    </mxGeometry>
                </mxCell>
                <mxCell id="17" value="" style="endArrow=none;html=1;" parent="28" target="3" edge="1">
                    <mxGeometry width="50" height="50" relative="1" as="geometry">
                        <mxPoint x="839.54" y="143" as="sourcePoint"/>
                        <mxPoint x="839.5" y="63" as="targetPoint"/>
                    </mxGeometry>
                </mxCell>
                <mxCell id="18" value="tiene" style="rhombus;whiteSpace=wrap;html=1;fillColor=#1D1D91;fontColor=#ffffff;strokeColor=#001DBC;" parent="28" vertex="1">
                    <mxGeometry x="510" y="317" width="100" height="50" as="geometry"/>
                </mxCell>
                <mxCell id="19" value="1:N" style="text;strokeColor=none;fillColor=none;align=center;verticalAlign=middle;spacingLeft=4;spacingRight=4;overflow=hidden;points=[[0,0.5],[1,0.5]];portConstraint=eastwest;rotatable=0;" parent="28" vertex="1">
                    <mxGeometry x="740" y="132" width="80" height="30" as="geometry"/>
                </mxCell>
                <mxCell id="21" value="" style="endArrow=none;html=1;entryX=1;entryY=0.75;entryDx=0;entryDy=0;exitX=0;exitY=0.5;exitDx=0;exitDy=0;" parent="28" source="18" target="5" edge="1">
                    <mxGeometry width="50" height="50" relative="1" as="geometry">
                        <mxPoint x="477" y="252" as="sourcePoint"/>
                        <mxPoint x="527" y="202" as="targetPoint"/>
                    </mxGeometry>
                </mxCell>
                <mxCell id="22" value="N:N" style="text;strokeColor=none;fillColor=none;align=center;verticalAlign=middle;spacingLeft=4;spacingRight=4;overflow=hidden;points=[[0,0.5],[1,0.5]];portConstraint=eastwest;rotatable=0;" parent="28" vertex="1">
                    <mxGeometry x="520" y="286" width="80" height="30" as="geometry"/>
                </mxCell>
                <mxCell id="23" value="" style="endArrow=none;html=1;entryX=0;entryY=0.5;entryDx=0;entryDy=0;" parent="28" source="18" target="7" edge="1">
                    <mxGeometry width="50" height="50" relative="1" as="geometry">
                        <mxPoint x="640" y="372" as="sourcePoint"/>
                        <mxPoint x="690" y="322" as="targetPoint"/>
                    </mxGeometry>
                </mxCell>
                <mxCell id="24" value="tiene" style="rhombus;whiteSpace=wrap;html=1;fillColor=#1D1D91;fontColor=#ffffff;strokeColor=#001DBC;" parent="28" vertex="1">
                    <mxGeometry x="290" y="317" width="100" height="50" as="geometry"/>
                </mxCell>
                <mxCell id="25" value="" style="endArrow=none;html=1;entryX=0;entryY=0.75;entryDx=0;entryDy=0;exitX=1;exitY=0.5;exitDx=0;exitDy=0;" parent="28" source="24" target="5" edge="1">
                    <mxGeometry width="50" height="50" relative="1" as="geometry">
                        <mxPoint x="390" y="343" as="sourcePoint"/>
                        <mxPoint x="390" y="182" as="targetPoint"/>
                    </mxGeometry>
                </mxCell>
                <mxCell id="26" value="" style="endArrow=none;html=1;entryX=0;entryY=0.5;entryDx=0;entryDy=0;exitX=1;exitY=0.5;exitDx=0;exitDy=0;" parent="28" source="6" target="24" edge="1">
                    <mxGeometry width="50" height="50" relative="1" as="geometry">
                        <mxPoint x="170" y="372" as="sourcePoint"/>
                        <mxPoint x="220" y="322" as="targetPoint"/>
                    </mxGeometry>
                </mxCell>
                <mxCell id="27" value="1:N" style="text;strokeColor=none;fillColor=none;align=center;verticalAlign=middle;spacingLeft=4;spacingRight=4;overflow=hidden;points=[[0,0.5],[1,0.5]];portConstraint=eastwest;rotatable=0;" parent="28" vertex="1">
                    <mxGeometry x="300" y="287" width="80" height="30" as="geometry"/>
                </mxCell>
            </root>
        </mxGraphModel>
    </diagram>
</mxfile>